<?xml version="1.0" standalone="no"?>
<!DOCTYPE svg PUBLIC "-//W3C//DTD SVG 20010904//EN"
 "http://www.w3.org/TR/2001/REC-SVG-20010904/DTD/svg10.dtd">
<svg version="1.0" xmlns="http://www.w3.org/2000/svg"
 width="100.000000pt" height="133.000000pt" viewBox="0 0 100.000000 133.000000"
 preserveAspectRatio="xMidYMid meet">
<metadata>
Created by potrace 1.10, written by Peter Selinger 2001-2011
</metadata>
<g transform="translate(0.000000,133.000000) scale(0.050000,-0.050000)"
fill="#000000" stroke="none">
<path d="M0 1330 l0 -1330 1000 0 1000 0 0 1330 0 1330 -1000 0 -1000 0 0
-1330z m1980 567 l0 -744 -45 41 c-68 62 -136 93 -158 71 -20 -20 94 -171 165
-221 65 -45 48 -97 -37 -110 -41 -7 -156 -31 -255 -54 -99 -23 -202 -43 -230
-46 -27 -2 -56 -12 -63 -22 -7 -10 -28 -12 -47 -5 -48 19 -2 73 56 67 32 -3
43 7 43 39 1 24 8 51 18 60 9 9 13 4 10 -12 -9 -40 79 -45 101 -6 9 16 44 31
78 32 34 2 69 11 78 21 9 10 -16 13 -59 6 -85 -13 -88 -10 -41 45 26 30 40 34
60 17 54 -44 89 44 42 103 -46 59 -93 65 -136 19 -62 -68 -341 -298 -424 -350
-97 -61 -120 -87 -106 -123 5 -14 -5 -25 -22 -25 -17 0 -26 7 -21 16 17 27
-83 12 -119 -17 -27 -22 -36 -23 -43 -4 -5 14 -20 25 -35 25 -15 0 -54 23 -87
51 -56 47 -60 47 -58 11 2 -22 9 -36 16 -31 7 4 30 -5 51 -21 36 -27 34 -29
-24 -29 -61 -1 -63 2 -65 88 -2 101 28 137 55 66 24 -63 63 -92 144 -108 l68
-13 -40 41 c-22 22 -48 35 -58 29 -10 -5 -12 -1 -5 11 7 12 0 35 -17 52 -31
31 -42 114 -15 112 45 -2 165 -137 153 -171 -9 -29 -7 -31 8 -10 11 15 30 21
42 13 12 -7 36 0 52 16 32 32 12 68 -64 110 -49 27 -12 63 66 63 69 0 135 25
180 68 84 82 153 134 163 123 15 -15 65 101 65 151 0 21 10 38 22 38 15 0 18
-25 9 -74 l-14 -75 41 50 c41 47 43 48 71 11 16 -21 42 -32 59 -25 17 6 37 1
45 -11 19 -32 51 61 36 107 -6 20 -3 37 8 37 11 0 23 -15 27 -33 5 -29 9 -30
31 -4 26 33 3 76 -94 171 l-49 48 -26 -51 c-26 -49 -83 -91 -125 -91 -32 0
-25 80 9 93 23 9 27 31 17 94 -12 81 -47 150 -47 93 0 -19 -10 -15 -29 11 -45
60 -51 -98 -7 -186 17 -33 16 -66 -3 -130 -14 -47 -29 -97 -34 -112 -4 -15
-20 -22 -35 -17 -16 6 -36 -9 -49 -38 -12 -26 -29 -46 -38 -44 -35 9 -104 -29
-134 -75 -27 -42 -44 -48 -116 -41 -47 4 -96 -1 -109 -12 -30 -24 -72 -1 -59
33 5 13 -18 54 -51 89 -83 88 -35 165 52 84 48 -45 172 -47 172 -2 0 30 -81
44 -111 19 -24 -19 -29 -17 -29 16 0 50 105 71 209 43 92 -26 119 -9 80 51
-32 48 -189 105 -227 82 -47 -29 -22 -71 41 -71 88 0 65 -15 -38 -26 -47 -4
-85 0 -85 9 0 9 8 17 19 17 30 0 14 90 -23 126 -26 27 -29 47 -15 99 54 187 2
261 -161 225 -56 -12 -60 -9 -60 43 0 32 -9 70 -19 86 -11 18 -11 43 1 65 33
61 58 40 58 -47 0 -122 22 -80 29 56 9 162 79 313 106 231 16 -46 105 -28 105
20 0 32 6 38 22 22 25 -25 98 -11 98 20 0 12 13 4 29 -17 24 -31 30 -33 30 -8
1 17 -10 42 -23 55 -17 17 -18 24 -1 24 30 0 55 -42 49 -81 -5 -32 74 -120
224 -247 51 -43 92 -88 92 -100 0 -12 12 -45 27 -73 14 -28 32 -80 40 -117 7
-36 29 -87 50 -113 l37 -47 42 48 c59 68 15 240 -94 370 -106 126 -133 180
-91 180 20 0 29 -11 23 -28 -10 -26 20 -72 47 -72 27 0 1 106 -36 147 -22 24
-45 59 -51 78 -7 19 -33 36 -58 37 -25 0 -64 5 -86 11 -22 5 -78 14 -124 20
-46 7 -102 29 -124 50 -40 37 -43 37 -127 -1 -47 -21 -110 -46 -140 -55 -30
-9 -57 -26 -59 -37 -4 -23 -19 -41 -111 -139 -49 -52 -65 -87 -66 -145 0 -42
-4 -125 -9 -186 -15 -190 147 -693 251 -777 40 -32 39 -34 -48 -82 -85 -46
-90 -53 -102 -160 -18 -153 -58 -231 -134 -262 -79 -33 -238 -168 -273 -232
-34 -63 -17 -59 59 12 34 33 81 65 104 72 101 28 153 56 153 81 0 16 -13 22
-35 15 -30 -9 -30 -7 -5 11 49 35 227 29 213 -8 -14 -36 10 -39 43 -6 14 14
24 16 24 3 0 -48 -401 -267 -490 -267 -9 0 -59 -27 -113 -60 -54 -33 -102 -60
-107 -60 -6 0 -10 549 -10 1220 l0 1220 980 0 980 0 0 -743z m-713 419 c39
-41 52 -66 36 -72 -19 -6 -17 -20 6 -55 l31 -48 -70 42 c-38 22 -70 54 -70 70
0 16 9 24 20 17 30 -18 24 15 -11 66 -46 65 -13 54 58 -20z m-575 -526 c-21
-16 -48 -32 -60 -37 -15 -5 -13 -17 6 -35 21 -22 29 -22 36 -3 5 14 35 25 66
25 55 0 55 -2 38 -79 -10 -44 -16 -113 -15 -155 3 -73 -35 -166 -68 -166 -8 0
-15 18 -15 39 0 22 -18 85 -40 141 -65 164 -42 301 50 299 39 0 39 -1 2 -29z
m1284 -1116 l5 -235 -55 9 c-31 5 -119 15 -196 22 -77 8 -207 35 -290 61 -82
25 -177 50 -210 54 -56 7 -54 9 25 24 47 9 85 24 85 34 0 23 -18 22 -123 -10
-92 -28 -144 -20 -152 22 -3 14 -1 25 3 25 5 0 96 23 204 52 107 28 218 56
246 61 95 17 320 84 356 105 84 50 96 25 102 -224z m-717 137 c25 -29 -145
-72 -173 -43 -20 19 7 36 61 39 27 2 45 10 40 18 -17 28 48 15 72 -14z m-281
-146 c47 13 71 -12 54 -57 -10 -26 -17 -25 -60 2 -26 18 -51 24 -55 13 -4 -11
-26 -11 -57 1 l-50 19 50 27 c34 18 54 20 63 5 7 -11 32 -16 55 -10z m-178 -3
c0 -25 -42 -38 -85 -26 -57 14 -40 44 25 44 33 0 60 -8 60 -18z m373 -116 c42
-18 88 -31 102 -29 28 5 109 -34 127 -61 6 -10 46 -23 89 -28 42 -5 88 -19
102 -30 14 -12 55 -18 91 -15 76 8 76 6 28 -150 -20 -64 -32 -138 -27 -165 l9
-48 -452 0 c-299 1 -442 7 -422 20 20 13 22 19 5 20 -14 0 -25 15 -25 32 0 30
4 30 50 0 28 -18 51 -26 52 -17 1 8 5 71 9 140 8 166 14 172 140 157 97 -11
169 14 169 59 0 80 -169 116 -230 49 -20 -22 -48 -40 -63 -40 -46 0 -91 -116
-79 -207 5 -46 5 -67 -1 -48 -5 20 -18 30 -29 24 -10 -7 -13 -20 -7 -30 6 -11
1 -19 -11 -19 -34 0 -5 173 47 280 39 81 49 89 105 84 37 -3 72 6 87 25 32 39
39 39 134 -3z m-97 -98 c22 13 55 -23 37 -41 -27 -28 -135 17 -111 46 18 21
28 23 39 5 8 -13 24 -17 35 -10z m-381 -77 c5 -4 14 -82 20 -172 10 -145 14
-160 38 -128 26 35 27 34 27 -7 0 -39 -11 -44 -90 -44 -49 0 -90 7 -90 15 0 8
12 80 28 160 15 80 21 145 13 145 -18 0 -82 -283 -68 -304 5 -9 -35 -16 -88
-16 l-98 0 8 135 c11 189 70 242 85 78 14 -153 44 -169 37 -20 -8 162 89 248
178 158z m1217 0 c6 -16 24 -24 40 -18 34 14 41 -182 7 -204 -12 -7 -19 -37
-15 -66 6 -51 2 -53 -99 -59 -95 -5 -105 -2 -105 35 0 23 7 41 16 41 15 0 26
74 32 210 3 79 99 126 124 61z m-1552 -106 c-1 -185 -24 -245 -95 -245 l-69 0
7 91 c6 76 4 85 -18 56 -14 -19 -25 -60 -25 -91 0 -51 -6 -56 -71 -56 -76 0
-83 49 -16 115 15 16 27 37 27 49 0 11 14 15 30 9 19 -7 30 0 30 20 0 19 11
27 28 20 16 -5 44 7 63 28 44 49 109 51 109 4z"/>
<path d="M985 2327 c-14 -6 -25 -27 -25 -47 0 -21 -9 -43 -20 -50 -11 -7 -19
-23 -18 -36 1 -17 4 -17 11 1 16 39 63 29 77 -16 9 -26 2 -55 -18 -77 -42 -47
-40 -62 8 -62 22 0 40 13 40 30 0 17 12 30 27 30 18 0 23 19 17 62 -6 39 -15
53 -24 37 -22 -34 -67 53 -54 103 6 21 9 37 7 36 -2 0 -14 -6 -28 -11z"/>
<path d="M1020 1919 c-60 -9 -116 -11 -125 -6 -34 21 -11 -11 65 -91 54 -57
80 -73 80 -50 0 25 6 28 27 10 21 -17 43 -16 91 4 68 29 63 54 -10 54 -25 0
-52 10 -60 23 -10 17 9 20 69 12 46 -6 83 -3 83 6 0 19 -68 60 -94 57 -9 -2
-65 -10 -126 -19z"/>
<path d="M1353 279 c-19 -32 -43 -59 -53 -59 -9 0 -31 -27 -47 -60 -16 -33
-23 -60 -15 -60 9 0 25 20 37 45 l21 45 21 -50 c18 -45 21 -46 22 -8 0 23 17
57 38 75 33 30 45 98 21 122 -6 5 -26 -17 -45 -50z"/>
<path d="M1080 302 c0 -13 -9 -19 -20 -12 -11 7 -20 2 -20 -10 0 -12 -9 -17
-20 -10 -12 7 -19 4 -15 -7 3 -11 -13 -35 -35 -53 -22 -18 -27 -26 -12 -19 21
12 25 3 18 -38 -6 -29 -3 -53 7 -53 9 0 17 8 17 19 0 10 11 30 25 45 41 43 83
135 68 149 -7 8 -13 3 -13 -11z"/>
<path d="M1545 249 c-25 -37 -45 -89 -45 -114 0 -41 3 -41 30 12 17 32 30 69
30 84 0 14 10 29 23 33 13 5 19 18 15 31 -4 13 -28 -8 -53 -46z"/>
</g>
</svg>
